<svg id="visual" viewBox="0 0 960 540" width="960" height="540" xmlns="http://www.w3.org/2000/svg" xmlns:xlink="http://www.w3.org/1999/xlink" version="1.1"><rect width="960" height="540" fill="#ffffff"></rect><g><g transform="translate(740 23)"><path d="M55.3 -54C70.6 -40.1 81 -20 77.7 -3.3C74.5 13.5 57.4 26.9 42.2 39.1C26.9 51.3 13.5 62.1 -5.4 67.6C-24.3 73 -48.6 72.9 -67.3 60.8C-86.1 48.6 -99.3 24.3 -96.8 2.5C-94.3 -19.4 -76.2 -38.8 -57.5 -52.7C-38.8 -66.6 -19.4 -75 0.3 -75.4C20 -75.7 40.1 -67.9 55.3 -54Z" fill="#FCAF3C"></path></g><g transform="translate(272 432)"><path d="M40 -38.2C51.1 -28.9 58.8 -14.5 56.9 -1.9C55.1 10.7 43.6 21.5 32.6 31.7C21.5 42 10.7 51.7 -3.3 55.1C-17.4 58.4 -34.7 55.2 -42.8 45C-50.8 34.7 -49.5 17.4 -48.5 0.9C-47.6 -15.5 -47 -30.9 -39 -40.3C-30.9 -49.6 -15.5 -52.8 -0.5 -52.3C14.5 -51.8 28.9 -47.6 40 -38.2Z" fill="#FCAF3C"></path></g><g transform="translate(483 219)"><path d="M29.8 -34C38.8 -20.8 46.4 -10.4 48.2 1.7C49.9 13.9 45.7 27.7 36.7 37.2C27.7 46.7 13.9 51.9 -0.8 52.6C-15.4 53.4 -30.7 49.7 -43.3 40.2C-55.8 30.7 -65.5 15.4 -65.5 0C-65.5 -15.3 -55.7 -30.6 -43.2 -43.9C-30.6 -57.1 -15.3 -68.3 -2.5 -65.8C10.4 -63.4 20.8 -47.2 29.8 -34Z" fill="#FCAF3C"></path></g><g transform="translate(891 221)"><path d="M27.8 -28.4C34.9 -20.8 38.6 -10.4 40.8 2.2C43 14.7 43.6 29.4 36.5 36.1C29.4 42.7 14.7 41.3 -0.7 42.1C-16.2 42.8 -32.4 45.7 -40.6 39C-48.8 32.4 -49.1 16.2 -46.5 2.5C-44 -11.2 -38.7 -22.3 -30.5 -29.9C-22.3 -37.6 -11.2 -41.7 -0.4 -41.3C10.4 -40.9 20.8 -36 27.8 -28.4Z" fill="#FCAF3C"></path></g><g transform="translate(501 479)"><path d="M41.3 -43.4C51.3 -31.2 55.8 -15.6 53.4 -2.4C51 10.8 41.8 21.7 31.7 31.8C21.7 41.9 10.8 51.3 -4 55.3C-18.9 59.3 -37.8 58 -46.8 47.9C-55.8 37.8 -54.9 18.9 -53.9 1.1C-52.8 -16.8 -51.6 -33.6 -42.6 -45.7C-33.6 -57.8 -16.8 -65.2 -0.6 -64.7C15.6 -64.1 31.2 -55.5 41.3 -43.4Z" fill="#FCAF3C"></path></g><g transform="translate(312 30)"><path d="M21.9 -20.8C29.2 -14.7 36.3 -7.4 38.9 2.5C41.4 12.4 39.4 24.9 32.1 30.5C24.9 36 12.4 34.8 0.6 34.1C-11.2 33.5 -22.4 33.6 -32.2 28C-42 22.4 -50.4 11.2 -48.3 2.1C-46.3 -7.1 -33.8 -14.2 -24 -20.3C-14.2 -26.4 -7.1 -31.5 0.1 -31.6C7.4 -31.7 14.7 -26.9 21.9 -20.8Z" fill="#FCAF3C"></path></g><g transform="translate(763 419)"><path d="M28.4 -29.3C34.9 -21.9 37 -10.9 37.2 0.2C37.4 11.3 35.7 22.7 29.2 30.6C22.7 38.6 11.3 43.2 -0.4 43.6C-12.1 44 -24.3 40.2 -34.3 32.2C-44.4 24.3 -52.3 12.1 -52.4 -0.1C-52.4 -12.3 -44.6 -24.6 -34.6 -32C-24.6 -39.5 -12.3 -42.1 -0.7 -41.5C10.9 -40.8 21.9 -36.8 28.4 -29.3Z" fill="#FCAF3C"></path></g><g transform="translate(41 11)"><path d="M44.1 -38.8C56.2 -32.1 64.4 -16 63 -1.4C61.6 13.3 50.7 26.5 38.6 33.3C26.5 40.1 13.3 40.5 -2.3 42.8C-17.9 45.1 -35.9 49.5 -47.5 42.7C-59 35.9 -64.2 17.9 -63.8 0.4C-63.3 -17.1 -57.3 -34.1 -45.7 -40.9C-34.1 -47.7 -17.1 -44.2 -0.5 -43.7C16 -43.1 32.1 -45.6 44.1 -38.8Z" fill="#FCAF3C"></path></g></g></svg>